<svg width="327" height="34" xmlns="http://www.w3.org/2000/svg"><g fill="none" fill-rule="evenodd"><path fill="#000" d="M326.518 5.832h-9.893v27.793h-6.103V5.832h-9.892V.817h25.888zM274.47 21.237l-3.993-10.913a24.032 24.032 0 01-.614-1.725 56.62 56.62 0 01-.634-2.155c-.196.771-.402 1.494-.614 2.167a27.13 27.13 0 01-.61 1.758l-3.972 10.868h10.438zm10.777 12.388h-4.719c-.53 0-.961-.132-1.293-.397a2.465 2.465 0 01-.749-.987l-2.45-6.694h-13.591l-2.45 6.694c-.122.348-.356.665-.703.953-.349.289-.78.431-1.293.431h-4.766L266.143.817h6.217l12.887 32.808zM231.497 25.889c.334 0 .628.128.887.385l2.404 2.61a13.207 13.207 0 01-4.912 3.789c-1.944.876-4.278 1.315-7 1.315-2.435 0-4.625-.416-6.569-1.248-1.943-.831-3.603-1.989-4.98-3.472-1.376-1.481-2.43-3.25-3.164-5.309-.735-2.056-1.101-4.303-1.101-6.738 0-2.465.393-4.722 1.18-6.772.787-2.05 1.895-3.817 3.325-5.298 1.428-1.483 3.134-2.637 5.115-3.46 1.981-.824 4.175-1.237 6.58-1.237 2.39 0 4.51.393 6.365 1.18 1.851.787 3.429 1.815 4.73 3.086l-2.042 2.836c-.122.182-.276.34-.466.476-.19.137-.45.205-.782.205a1.5 1.5 0 01-.703-.193c-.243-.13-.508-.288-.794-.477-.288-.19-.62-.397-1-.624a8.19 8.19 0 00-1.315-.623 10.564 10.564 0 00-1.735-.476c-.659-.13-1.42-.195-2.28-.195-1.468 0-2.81.262-4.03.784a8.758 8.758 0 00-3.141 2.269c-.876.991-1.557 2.2-2.041 3.63-.485 1.428-.726 3.06-.726 4.889 0 1.846.261 3.487.782 4.923.521 1.438 1.228 2.647 2.122 3.63a9.039 9.039 0 003.154 2.258c1.21.523 2.51.784 3.901.784.832 0 1.585-.046 2.26-.138a9.454 9.454 0 001.858-.43 8.136 8.136 0 001.612-.76c.506-.31 1.01-.692 1.507-1.145.154-.138.312-.247.478-.33.167-.083.34-.124.521-.124"/><path d="M107.783 28.794c-6.391 0-11.573-5.18-11.573-11.572 0-6.392 5.182-11.573 11.573-11.573 6.39 0 11.571 5.18 11.571 11.573 0 6.391-5.18 11.572-11.571 11.572m0-28.34c-9.261 0-16.768 7.507-16.768 16.768 0 9.26 7.507 16.767 16.768 16.767 9.26 0 16.766-7.507 16.766-16.767S117.044.454 107.783.454M56.153 16.427c1.15 0 2.151-.143 3.006-.431.855-.288 1.559-.684 2.11-1.191A4.765 4.765 0 0062.505 13c.273-.695.41-1.46.41-2.29 0-1.663-.548-2.942-1.646-3.835-1.095-.893-2.77-1.339-5.025-1.339h-3.902v10.89h3.811zm15.702 17.198h-5.513c-1.044 0-1.8-.408-2.27-1.225l-6.898-10.505c-.257-.393-.54-.673-.85-.84-.31-.167-.767-.25-1.373-.25h-2.61v12.82h-6.103V.817h10.006c2.224 0 4.134.23 5.73.692 1.595.462 2.904 1.108 3.926 1.94 1.02.833 1.772 1.826 2.256 2.984.484 1.156.726 2.431.726 3.822a9.896 9.896 0 01-.488 3.132 9.078 9.078 0 01-1.406 2.678 9.481 9.481 0 01-2.27 2.11c-.9.604-1.924 1.081-3.074 1.428a5.717 5.717 0 011.997 1.906l8.214 12.116zM10.664 17.312c1.118 0 2.094-.14 2.927-.42.83-.28 1.523-.681 2.074-1.203a4.866 4.866 0 001.238-1.906c.273-.748.409-1.583.409-2.506 0-.877-.136-1.671-.409-2.382a4.716 4.716 0 00-1.226-1.817c-.545-.498-1.232-.88-2.064-1.145-.832-.265-1.815-.396-2.95-.396h-4.56v11.775h4.56zm0-16.495c2.193 0 4.09.257 5.694.772 1.604.514 2.929 1.232 3.97 2.155a8.526 8.526 0 012.327 3.313c.507 1.285.76 2.693.76 4.22 0 1.588-.265 3.043-.794 4.367a9.1 9.1 0 01-2.382 3.416c-1.06.952-2.387 1.693-3.982 2.222-1.597.53-3.46.794-5.593.794H6.102v11.549H0V.817h10.665zM183.507.817v32.808h-5.378v-21.19c0-.848.047-1.763.135-2.746l-9.915 18.627c-.468.893-1.187 1.339-2.155 1.339h-.863c-.968 0-1.686-.446-2.155-1.34L153.15 9.62c.045.5.081.991.112 1.475.03.484.046.93.046 1.34v21.19h-5.378V.817h4.607c.271 0 .506.008.703.023.196.015.374.054.532.112.16.061.303.16.432.296.129.136.252.318.374.545l9.824 18.22c.258.483.496.983.715 1.495.22.515.435 1.045.646 1.59.213-.56.432-1.1.66-1.622.226-.522.468-1.025.726-1.509l9.686-18.174c.122-.227.25-.409.387-.545a1.28 1.28 0 01.442-.296c.16-.058.338-.097.532-.112.199-.015.434-.023.705-.023h4.607z" fill="#E74C24"/><path d="M113.123 19.148h-.001l.001-.022c0-1.886-.46-2.883-1.217-4.2-.47-.816-1.157-2.513-.559-3.868-1.356 1.076-1.723 4.195-1.803 6.334-.236-1.03-.198-2.652-.505-3.618-.82-2.567-1.742-3.603-1.01-4.81-.822.049-1.643 1.498-1.643 2.745 0 1.204-.326 3.168-1.104 4.245-.054-2.324-.836-3.81-1.569-3.869.753 1.92-1.332 4.296-1.332 7.015l.002.048h-.002a5.37 5.37 0 0010.719.46c.008-.08.009-.164.013-.247.002-.071.01-.141.01-.213" fill="#E74C24"/></g></svg>