<?xml version="1.0" encoding="UTF-8" standalone="no"?>
<svg
   xmlns:dc="http://purl.org/dc/elements/1.1/"
   xmlns:cc="http://creativecommons.org/ns#"
   xmlns:rdf="http://www.w3.org/1999/02/22-rdf-syntax-ns#"
   xmlns:svg="http://www.w3.org/2000/svg"
   xmlns="http://www.w3.org/2000/svg"
   version="1.1"
   id="svg4398"
   viewBox="0 0 1023.8575 390.44415"
   height="4.3382683in"
   width="11.376194in">
  <defs
     id="defs4400">
    <linearGradient
       gradientTransform="matrix(0.4345,-0.9318,-0.9318,-0.4345,6223.4761,-5052.7427)"
       y2="2496.6895"
       x2="-6636.2373"
       y1="2774.2998"
       x1="-6873.6479"
       gradientUnits="userSpaceOnUse"
       id="SVGID_1_">
      <stop
         id="stop3172"
         style="stop-color:#F59723"
         offset="0" />
      <stop
         id="stop3174"
         style="stop-color:#F69822"
         offset="0.3123" />
      <stop
         id="stop3176"
         style="stop-color:#E87726"
         offset="0.8383" />
    </linearGradient>
    <linearGradient
       gradientTransform="matrix(0.4345,-0.9318,-0.9318,-0.4345,6223.4761,-5052.7427)"
       y2="2804.9607"
       x2="-6936.9253"
       y1="2804.9607"
       x1="-8630.7197"
       gradientUnits="userSpaceOnUse"
       id="SVGID_2_">
      <stop
         id="stop3197"
         style="stop-color:#9C2063"
         offset="0.3233" />
      <stop
         id="stop3199"
         style="stop-color:#C82037"
         offset="0.6302" />
      <stop
         id="stop3201"
         style="stop-color:#CC2135"
         offset="0.7514" />
      <stop
         id="stop3203"
         style="stop-color:#E87726"
         offset="1" />
    </linearGradient>
    <linearGradient
       gradientTransform="matrix(0.4345,-0.9318,-0.9318,-0.4345,6223.4761,-5052.7427)"
       y2="2635.2839"
       x2="-7416.9194"
       y1="2635.2839"
       x1="-8426.2559"
       gradientUnits="userSpaceOnUse"
       id="SVGID_3_">
      <stop
         id="stop3208"
         style="stop-color:#282661"
         offset="0" />
      <stop
         id="stop3210"
         style="stop-color:#662E8C"
         offset="9.548389e-02" />
      <stop
         id="stop3212"
         style="stop-color:#9E2064"
         offset="0.7882" />
      <stop
         id="stop3214"
         style="stop-color:#CC2032"
         offset="0.9487" />
    </linearGradient>
    <linearGradient
       gradientTransform="matrix(0.4345,-0.9318,-0.9318,-0.4345,6223.4761,-5052.7427)"
       y2="2820.8604"
       x2="-6841.793"
       y1="2820.8604"
       x1="-8535.5879"
       gradientUnits="userSpaceOnUse"
       id="SVGID_4_">
      <stop
         id="stop3219"
         style="stop-color:#9C2063"
         offset="0.3233" />
      <stop
         id="stop3221"
         style="stop-color:#C82037"
         offset="0.6302" />
      <stop
         id="stop3223"
         style="stop-color:#CC2135"
         offset="0.7514" />
      <stop
         id="stop3225"
         style="stop-color:#E87726"
         offset="1" />
    </linearGradient>
    <linearGradient
       gradientTransform="matrix(0.4345,-0.9318,-0.9318,-0.4345,6223.4761,-5052.7427)"
       y2="2797.8789"
       x2="-7521.9175"
       y1="2797.8789"
       x1="-8412.0576"
       gradientUnits="userSpaceOnUse"
       id="SVGID_5_">
      <stop
         id="stop3230"
         style="stop-color:#282661"
         offset="0" />
      <stop
         id="stop3232"
         style="stop-color:#662E8C"
         offset="9.548389e-02" />
      <stop
         id="stop3234"
         style="stop-color:#9E2064"
         offset="0.7882" />
      <stop
         id="stop3236"
         style="stop-color:#CC2032"
         offset="0.9487" />
    </linearGradient>
    <linearGradient
       gradientTransform="matrix(0.4345,-0.9318,-0.9318,-0.4345,6223.4761,-5052.7427)"
       y2="2645.4897"
       x2="-6841.793"
       y1="2645.4897"
       x1="-8535.5879"
       gradientUnits="userSpaceOnUse"
       id="SVGID_6_">
      <stop
         id="stop3241"
         style="stop-color:#9C2063"
         offset="0.3233" />
      <stop
         id="stop3243"
         style="stop-color:#C82037"
         offset="0.6302" />
      <stop
         id="stop3245"
         style="stop-color:#CC2135"
         offset="0.7514" />
      <stop
         id="stop3247"
         style="stop-color:#E87726"
         offset="1" />
    </linearGradient>
    <linearGradient
       gradientTransform="matrix(0.4345,-0.9318,-0.9318,-0.4345,6223.4761,-5052.7427)"
       y2="2654.2649"
       x2="-6946.8647"
       y1="2654.2649"
       x1="-8640.6592"
       gradientUnits="userSpaceOnUse"
       id="SVGID_7_">
      <stop
         id="stop3252"
         style="stop-color:#9C2063"
         offset="0.3233" />
      <stop
         id="stop3254"
         style="stop-color:#C82037"
         offset="0.6302" />
      <stop
         id="stop3256"
         style="stop-color:#CC2135"
         offset="0.7514" />
      <stop
         id="stop3258"
         style="stop-color:#E87726"
         offset="1" />
    </linearGradient>
    <linearGradient
       gradientTransform="matrix(0.4345,-0.9318,-0.9318,-0.4345,6223.4761,-5052.7427)"
       y2="2593.446"
       x2="-6841.7925"
       y1="2593.446"
       x1="-8535.5889"
       gradientUnits="userSpaceOnUse"
       id="SVGID_8_">
      <stop
         id="stop3267"
         style="stop-color:#9C2063"
         offset="0.3233" />
      <stop
         id="stop3269"
         style="stop-color:#C82037"
         offset="0.6302" />
      <stop
         id="stop3271"
         style="stop-color:#CC2135"
         offset="0.7514" />
      <stop
         id="stop3273"
         style="stop-color:#E87726"
         offset="1" />
    </linearGradient>
    <linearGradient
       gradientTransform="matrix(0.4345,-0.9318,-0.9318,-0.4345,6223.4761,-5052.7427)"
       y2="2599.3242"
       x2="-6841.7925"
       y1="2599.3242"
       x1="-8535.5889"
       gradientUnits="userSpaceOnUse"
       id="SVGID_9_">
      <stop
         id="stop3282"
         style="stop-color:#9C2063"
         offset="0.3233" />
      <stop
         id="stop3284"
         style="stop-color:#C82037"
         offset="0.6302" />
      <stop
         id="stop3286"
         style="stop-color:#CC2135"
         offset="0.7514" />
      <stop
         id="stop3288"
         style="stop-color:#E87726"
         offset="1" />
    </linearGradient>
    <linearGradient
       gradientTransform="matrix(0.4345,-0.9318,-0.9318,-0.4345,6223.4761,-5052.7427)"
       y2="2600.5515"
       x2="-7209.6543"
       y1="2600.5515"
       x1="-7584.0386"
       gradientUnits="userSpaceOnUse"
       id="SVGID_10_">
      <stop
         id="stop3297"
         style="stop-color:#9C2063"
         offset="0.3233" />
      <stop
         id="stop3299"
         style="stop-color:#C82037"
         offset="0.6302" />
      <stop
         id="stop3301"
         style="stop-color:#CC2135"
         offset="0.7514" />
      <stop
         id="stop3303"
         style="stop-color:#E87726"
         offset="1" />
    </linearGradient>
  </defs>
  <metadata
     id="metadata4403">
    <rdf:RDF>
      <cc:Work
         rdf:about="">
        <dc:format>image/svg+xml</dc:format>
        <dc:type
           rdf:resource="http://purl.org/dc/dcmitype/StillImage" />
        <dc:title></dc:title>
      </cc:Work>
    </rdf:RDF>
  </metadata>
  <g
     transform="translate(-72.314569,-466.77116)"
     id="layer1">
    <g
       transform="matrix(0.22594137,0,0,0.22594137,72.15641,466.78864)"
       id="g3169">
      <linearGradient
         gradientTransform="matrix(0.4345,-0.9318,-0.9318,-0.4345,6223.4761,-5052.7427)"
         y2="2496.6895"
         x2="-6636.2373"
         y1="2774.2998"
         x1="-6873.6479"
         gradientUnits="userSpaceOnUse"
         id="linearGradient4274">
        <stop
           id="stop4276"
           style="stop-color:#F59723"
           offset="0" />
        <stop
           id="stop4278"
           style="stop-color:#F69822"
           offset="0.3123" />
        <stop
           id="stop4280"
           style="stop-color:#E87726"
           offset="0.8383" />
      </linearGradient>
      <path
         style="fill:url(#SVGID_1_)"
         id="path3178"
         d="m 736.1,8.1 c -27.1,16 -72.2,61.3 -125.8,127 l 49.3,93.2 C 694.3,178.8 729.5,134.1 765,96 c 2.8,-3 4.1,-4.4 4.1,-4.4 -1.3,1.4 -2.8,3 -4.1,4.4 -11.5,12.6 -46.4,53.4 -99,134.2 50.7,-2.5 128.5,-12.9 192,-23.7 19,-105.9 -18.5,-154.3 -18.5,-154.3 0,0 -47.6,-77 -103.4,-44.1 z" />
      <path
         style="fill:none"
         id="path3180"
         d="m 652.5,539.9 c 0.3,-0.1 0.7,-0.1 1.1,-0.2 l -7.1,0.8 c -0.4,0.2 -0.8,0.4 -1.2,0.6 2.3,-0.5 4.8,-0.9 7.2,-1.2 z" />
      <path
         style="fill:none"
         id="path3182"
         d="m 602,706.9 c -4,0.9 -8.1,1.6 -12.3,2.3 4.2,-0.7 8.3,-1.5 12.3,-2.3 z" />
      <path
         style="fill:none"
         id="path3184"
         d="m 259.4,1081.4 c 0.5,-1.3 1,-2.8 1.5,-4.1 10.9,-28.7 21.7,-56.6 32.3,-83.8 11.9,-30.5 23.7,-60 35.5,-88.6 12.3,-30.1 24.5,-59.3 36.4,-87.5 12.5,-29.5 24.9,-58 37.1,-85.4 9.9,-22.3 19.6,-43.9 29.2,-64.8 3.2,-7 6.4,-13.9 9.6,-20.7 6.3,-13.6 12.5,-26.8 18.7,-39.8 5.7,-11.9 11.3,-23.6 17,-35.2 1.9,-3.8 3.7,-7.6 5.6,-11.4 0.3,-0.6 0.6,-1.2 0.9,-1.9 l -6.1,0.6 -4.8,-9.5 c -0.5,0.9 -0.9,1.9 -1.4,2.8 -8.6,17.3 -17.3,34.6 -25.8,52.1 -4.9,10.2 -9.8,20.4 -14.7,30.5 -13.5,28.3 -26.7,57 -39.8,85.6 -13.2,29.1 -26.1,58.3 -38.9,87.6 -12.4,28.8 -24.7,57.6 -36.6,86.3 -11.9,28.7 -23.6,57.3 -35,85.6 -11.9,29.6 -23.4,59 -34.6,88 -2.6,6.6 -5,13.1 -7.6,19.6 -9,23.4 -17.8,46.6 -26.3,69.4 l 7.6,15 6.8,-0.7 c 0.2,-0.7 0.5,-1.3 0.7,-2.1 11.1,-29.8 22,-59.1 32.7,-87.6 z" />
      <path
         style="fill:none"
         id="path3186"
         d="M 586.6,709.6 Z" />
      <path
         style="fill:#bd202e"
         id="path3188"
         d="m 570.2,791 c -6.3,1.1 -12.7,2.3 -19.4,3.4 0,0 -0.1,0 -0.1,0.1 3.4,-0.5 6.7,-1 10,-1.5 3.1,-0.7 6.3,-1.3 9.5,-2 z" />
      <path
         style="opacity:0.35;fill:#bd202e"
         id="path3190"
         d="m 570.2,791 c -6.3,1.1 -12.7,2.3 -19.4,3.4 0,0 -0.1,0 -0.1,0.1 3.4,-0.5 6.7,-1 10,-1.5 3.1,-0.7 6.3,-1.3 9.5,-2 z"
         enable-background="new    " />
      <path
         style="fill:#bd202e"
         id="path3192"
         d="m 586.7,709.5 c 0,0 0,0.1 0,0 -0.1,0 -0.1,0 -0.1,0.1 1,-0.1 2.1,-0.3 3.1,-0.5 4.2,-0.6 8.3,-1.3 12.3,-2.3 -5,0.9 -10,1.8 -15.3,2.7 z" />
      <path
         style="opacity:0.35;fill:#bd202e"
         id="path3194"
         d="m 586.7,709.5 c 0,0 0,0.1 0,0 -0.1,0 -0.1,0 -0.1,0.1 1,-0.1 2.1,-0.3 3.1,-0.5 4.2,-0.6 8.3,-1.3 12.3,-2.3 -5,0.9 -10,1.8 -15.3,2.7 z"
         enable-background="new    " />
      <linearGradient
         gradientTransform="matrix(0.4345,-0.9318,-0.9318,-0.4345,6223.4761,-5052.7427)"
         y2="2804.9607"
         x2="-6936.9253"
         y1="2804.9607"
         x1="-8630.7197"
         gradientUnits="userSpaceOnUse"
         id="linearGradient4291">
        <stop
           id="stop4293"
           style="stop-color:#9C2063"
           offset="0.3233" />
        <stop
           id="stop4295"
           style="stop-color:#C82037"
           offset="0.6302" />
        <stop
           id="stop4297"
           style="stop-color:#CC2135"
           offset="0.7514" />
        <stop
           id="stop4299"
           style="stop-color:#E87726"
           offset="1" />
      </linearGradient>
      <path
         style="fill:url(#SVGID_2_)"
         id="path3205"
         d="m 514,469.2 c 15,-28.1 30.2,-55.5 45.5,-82.1 15.9,-27.8 32.1,-54.6 48.4,-80.6 0.9,-1.5 2,-3.1 2.9,-4.6 16.1,-25.5 32.4,-50.1 48.7,-73.5 l -49.3,-93.2 c -3.7,4.5 -7.4,9.1 -11.2,13.9 -14.3,17.8 -29,36.8 -44.2,57.1 -17.1,22.8 -34.6,47.2 -52.5,72.8 -16.4,23.6 -33.2,48.3 -50,74 -14.3,21.8 -28.5,44.2 -42.7,67.2 -0.5,0.8 -1,1.7 -1.5,2.6 l 64.3,127 C 486,522.3 500,495.4 514,469.2 Z" />
      <linearGradient
         gradientTransform="matrix(0.4345,-0.9318,-0.9318,-0.4345,6223.4761,-5052.7427)"
         y2="2635.2839"
         x2="-7416.9194"
         y1="2635.2839"
         x1="-8426.2559"
         gradientUnits="userSpaceOnUse"
         id="linearGradient4302">
        <stop
           id="stop4304"
           style="stop-color:#282661"
           offset="0" />
        <stop
           id="stop4306"
           style="stop-color:#662E8C"
           offset="9.548389e-02" />
        <stop
           id="stop4308"
           style="stop-color:#9E2064"
           offset="0.7882" />
        <stop
           id="stop4310"
           style="stop-color:#CC2032"
           offset="0.9487" />
      </linearGradient>
      <path
         style="fill:url(#SVGID_3_)"
         id="path3216"
         d="m 221.2,1184.4 c -8.5,23.3 -17.1,47.2 -25.6,71.5 -0.1,0.3 -0.2,0.7 -0.4,1 -1.2,3.4 -2.5,6.9 -3.6,10.3 -5.8,16.4 -10.8,31.2 -22.3,64.7 18.9,8.6 34.1,31.4 48.5,57.2 -1.5,-26.7 -12.5,-51.8 -33.6,-71.2 93.3,4.2 173.7,-19.4 215.3,-87.6 3.7,-6.1 7.1,-12.4 10.2,-19.3 -18.9,24 -42.4,34.1 -86.5,31.7 -0.1,0 -0.2,0.1 -0.3,0.1 0.1,0 0.2,-0.1 0.3,-0.1 65,-29.1 97.5,-57 126.4,-103.2 6.8,-11 13.5,-22.9 20.3,-36.2 -56.8,58.3 -122.5,74.9 -191.8,62.3 l -52,5.7 c -1.7,4.4 -3.2,8.7 -4.9,13.1 z" />
      <linearGradient
         gradientTransform="matrix(0.4345,-0.9318,-0.9318,-0.4345,6223.4761,-5052.7427)"
         y2="2820.8604"
         x2="-6841.793"
         y1="2820.8604"
         x1="-8535.5879"
         gradientUnits="userSpaceOnUse"
         id="linearGradient4313">
        <stop
           id="stop4315"
           style="stop-color:#9C2063"
           offset="0.3233" />
        <stop
           id="stop4317"
           style="stop-color:#C82037"
           offset="0.6302" />
        <stop
           id="stop4319"
           style="stop-color:#CC2135"
           offset="0.7514" />
        <stop
           id="stop4321"
           style="stop-color:#E87726"
           offset="1" />
      </linearGradient>
      <path
         style="fill:url(#SVGID_4_)"
         id="path3227"
         d="m 245.5,1068.1 c 11.2,-29 22.8,-58.4 34.6,-88 11.4,-28.4 23,-57 35,-85.6 12,-28.6 24.2,-57.5 36.6,-86.3 12.6,-29.3 25.6,-58.5 38.9,-87.6 13.1,-28.8 26.3,-57.4 39.8,-85.6 4.8,-10.2 9.8,-20.4 14.7,-30.5 8.5,-17.5 17.1,-34.9 25.8,-52.1 0.5,-0.9 0.9,-1.9 1.4,-2.8 L 408,422.6 c -1,1.7 -2.1,3.5 -3.2,5.1 -15,24.5 -29.9,49.5 -44.5,75 -14.8,25.8 -29.3,52.1 -43.5,78.8 -11.9,22.5 -23.6,45.1 -35.1,68.1 -2.3,4.6 -4.5,9.3 -6.8,13.9 -14,28.9 -26.6,56.6 -38.1,83.5 -13,30.3 -24.4,59.3 -34.3,86.8 -6.6,18.1 -12.5,35.5 -18,52.3 -4.5,14.3 -8.7,28.7 -12.9,43 -9.6,33.6 -17.9,67.2 -24.7,100.6 l 64.6,127.5 c 8.5,-22.8 17.3,-46 26.3,-69.4 2.7,-6.7 5.1,-13.3 7.7,-19.7 z" />
      <linearGradient
         gradientTransform="matrix(0.4345,-0.9318,-0.9318,-0.4345,6223.4761,-5052.7427)"
         y2="2797.8789"
         x2="-7521.9175"
         y1="2797.8789"
         x1="-8412.0576"
         gradientUnits="userSpaceOnUse"
         id="linearGradient4324">
        <stop
           id="stop4326"
           style="stop-color:#282661"
           offset="0" />
        <stop
           id="stop4328"
           style="stop-color:#662E8C"
           offset="9.548389e-02" />
        <stop
           id="stop4330"
           style="stop-color:#9E2064"
           offset="0.7882" />
        <stop
           id="stop4332"
           style="stop-color:#CC2032"
           offset="0.9487" />
      </linearGradient>
      <path
         style="fill:url(#SVGID_5_)"
         id="path3238"
         d="m 146.2,1034 c -8.1,40.8 -13.9,81.4 -16.8,121.8 -0.1,1.4 -0.2,2.8 -0.3,4.2 -20.2,-32.3 -74.1,-63.8 -74,-63.5 38.7,56 68,111.6 72.3,166.2 -20.7,4.2 -49,-1.9 -81.7,-13.9 34.1,31.4 59.7,40 69.8,42.4 -31.4,2 -64,23.5 -96.9,48.3 48.1,-19.6 87,-27.4 114.8,-21.1 -44.2,125 -88.4,263 -132.7,409.6 13.6,-4 21.7,-13.2 26.2,-25.5 7.9,-26.5 60.2,-200.7 142.3,-429.4 2.4,-6.5 4.7,-13.1 7.1,-19.6 0.6,-1.9 1.3,-3.7 2,-5.4 8.6,-24 17.7,-48.5 26.9,-73.5 2.1,-5.7 4.2,-11.4 6.4,-17.1 0,-0.1 0.1,-0.2 0.1,-0.3 L 147,1029.7 c -0.2,1.3 -0.5,2.8 -0.8,4.3 z" />
      <linearGradient
         gradientTransform="matrix(0.4345,-0.9318,-0.9318,-0.4345,6223.4761,-5052.7427)"
         y2="2645.4897"
         x2="-6841.793"
         y1="2645.4897"
         x1="-8535.5879"
         gradientUnits="userSpaceOnUse"
         id="linearGradient4335">
        <stop
           id="stop4337"
           style="stop-color:#9C2063"
           offset="0.3233" />
        <stop
           id="stop4339"
           style="stop-color:#C82037"
           offset="0.6302" />
        <stop
           id="stop4341"
           style="stop-color:#CC2135"
           offset="0.7514" />
        <stop
           id="stop4343"
           style="stop-color:#E87726"
           offset="1" />
      </linearGradient>
      <path
         style="fill:url(#SVGID_6_)"
         id="path3249"
         d="m 482.3,560.2 c -1.9,3.8 -3.7,7.6 -5.6,11.4 -5.6,11.5 -11.2,23.2 -17,35.2 -6.2,13 -12.4,26.2 -18.7,39.8 -3.2,6.8 -6.4,13.7 -9.6,20.7 -9.6,20.9 -19.3,42.5 -29.2,64.8 -12.1,27.3 -24.6,55.8 -37.1,85.4 -11.9,28.2 -24.2,57.3 -36.4,87.5 -11.7,28.6 -23.5,58.2 -35.5,88.6 -10.7,27.1 -21.5,55.1 -32.3,83.8 -0.5,1.3 -1,2.8 -1.5,4.1 -10.8,28.5 -21.7,57.8 -32.6,87.8 -0.2,0.7 -0.5,1.3 -0.7,2.1 l 52,-5.7 c -1,-0.2 -2.1,-0.3 -3.1,-0.5 62.1,-7.7 144.8,-54.2 198.1,-111.5 24.6,-26.4 46.9,-57.6 67.5,-94.1 15.3,-27.1 29.8,-57.3 43.6,-90.6 12,-29.1 23.5,-60.7 34.6,-94.8 -14.3,7.5 -30.6,13.1 -48.6,16.9 -3.2,0.7 -6.4,1.3 -9.7,1.9 -3.3,0.6 -6.6,1.1 -10,1.5 v 0 0 c 0,0 0.1,0 0.1,-0.1 58,-22.3 94.5,-65.3 121,-118 -15.2,10.4 -40,24 -69.7,30.5 -4,0.9 -8.1,1.6 -12.3,2.3 -1,0.1 -2.1,0.3 -3.1,0.5 v 0 0 h 0.1 c 0,0 0,0 0.1,0 v 0 c 20.2,-8.4 37.1,-17.9 51.8,-29 3.2,-2.4 6.3,-4.8 9.1,-7.4 4.5,-3.9 8.7,-8 12.9,-12.2 2.6,-2.8 5.1,-5.6 7.6,-8.5 5.8,-6.9 11.2,-14.3 16.2,-22.3 1.5,-2.5 3.1,-4.9 4.5,-7.5 2,-3.7 3.8,-7.4 5.6,-10.9 8.1,-16.2 14.6,-30.8 19.7,-43.5 2.6,-6.4 4.8,-12.2 6.8,-17.8 0.8,-2.2 1.5,-4.3 2.2,-6.4 2.1,-6.1 3.7,-11.5 5,-16.3 2,-7.2 3.2,-12.9 3.8,-17 v 0 0 c -2,1.5 -4.2,3.1 -6.8,4.6 -17.5,10.5 -47.5,19.9 -71.7,24.4 l 47.7,-5.2 -47.7,5.2 c -0.3,0.1 -0.7,0.1 -1.1,0.2 -2.5,0.4 -4.8,0.8 -7.3,1.1 0.4,-0.2 0.8,-0.4 1.2,-0.6 l -163.3,17.9 c 0,0.4 -0.3,1.1 -0.6,1.7 z" />
      <linearGradient
         gradientTransform="matrix(0.4345,-0.9318,-0.9318,-0.4345,6223.4761,-5052.7427)"
         y2="2654.2649"
         x2="-6946.8647"
         y1="2654.2649"
         x1="-8640.6592"
         gradientUnits="userSpaceOnUse"
         id="linearGradient4346">
        <stop
           id="stop4348"
           style="stop-color:#9C2063"
           offset="0.3233" />
        <stop
           id="stop4350"
           style="stop-color:#C82037"
           offset="0.6302" />
        <stop
           id="stop4352"
           style="stop-color:#CC2135"
           offset="0.7514" />
        <stop
           id="stop4354"
           style="stop-color:#E87726"
           offset="1" />
      </linearGradient>
      <path
         style="fill:url(#SVGID_7_)"
         id="path3260"
         d="m 666.1,230.2 c -14.5,22.3 -30.3,47.6 -47.5,76.3 -0.9,1.4 -1.9,3.1 -2.7,4.5 -14.7,24.8 -30.3,52 -46.9,81.9 -14.2,25.8 -29,53.4 -44.4,83.1 -13.4,25.9 -27.2,53.4 -41.5,82.5 l 163.3,-17.9 c 47.6,-21.9 68.8,-41.6 89.4,-70.3 5.4,-7.9 11,-16.1 16.4,-24.7 16.8,-26.2 33.2,-55 47.9,-83.7 14.2,-27.7 26.7,-55.1 36.3,-79.9 6.1,-15.7 11,-30.3 14.4,-43.2 3,-11.3 5.3,-22.1 7.1,-32.4 -63.3,10.9 -141.2,21.3 -191.8,23.8 z" />
      <path
         style="fill:#bd202e"
         id="path3262"
         d="m 560.5,792.8 c -3.3,0.6 -6.6,1.1 -10,1.5 v 0 c 3.4,-0.3 6.8,-0.9 10,-1.5 z" />
      <path
         style="opacity:0.35;fill:#bd202e"
         id="path3264"
         d="m 560.5,792.8 c -3.3,0.6 -6.6,1.1 -10,1.5 v 0 c 3.4,-0.3 6.8,-0.9 10,-1.5 z"
         enable-background="new    " />
      <linearGradient
         gradientTransform="matrix(0.4345,-0.9318,-0.9318,-0.4345,6223.4761,-5052.7427)"
         y2="2593.446"
         x2="-6841.7925"
         y1="2593.446"
         x1="-8535.5889"
         gradientUnits="userSpaceOnUse"
         id="linearGradient4359">
        <stop
           id="stop4361"
           style="stop-color:#9C2063"
           offset="0.3233" />
        <stop
           id="stop4363"
           style="stop-color:#C82037"
           offset="0.6302" />
        <stop
           id="stop4365"
           style="stop-color:#CC2135"
           offset="0.7514" />
        <stop
           id="stop4367"
           style="stop-color:#E87726"
           offset="1" />
      </linearGradient>
      <path
         style="fill:url(#SVGID_8_)"
         id="path3275"
         d="m 560.5,792.8 c -3.3,0.6 -6.6,1.1 -10,1.5 v 0 c 3.4,-0.3 6.8,-0.9 10,-1.5 z" />
      <path
         style="fill:#bd202e"
         id="path3277"
         d="m 586.6,709.6 c 1,-0.1 2.1,-0.3 3.1,-0.5 -1,0.1 -2,0.4 -3.1,0.5 z" />
      <path
         style="opacity:0.35;fill:#bd202e"
         id="path3279"
         d="m 586.6,709.6 c 1,-0.1 2.1,-0.3 3.1,-0.5 -1,0.1 -2,0.4 -3.1,0.5 z"
         enable-background="new    " />
      <linearGradient
         gradientTransform="matrix(0.4345,-0.9318,-0.9318,-0.4345,6223.4761,-5052.7427)"
         y2="2599.3242"
         x2="-6841.7925"
         y1="2599.3242"
         x1="-8535.5889"
         gradientUnits="userSpaceOnUse"
         id="linearGradient4372">
        <stop
           id="stop4374"
           style="stop-color:#9C2063"
           offset="0.3233" />
        <stop
           id="stop4376"
           style="stop-color:#C82037"
           offset="0.6302" />
        <stop
           id="stop4378"
           style="stop-color:#CC2135"
           offset="0.7514" />
        <stop
           id="stop4380"
           style="stop-color:#E87726"
           offset="1" />
      </linearGradient>
      <path
         style="fill:url(#SVGID_9_)"
         id="path3290"
         d="m 586.6,709.6 c 1,-0.1 2.1,-0.3 3.1,-0.5 -1,0.1 -2,0.4 -3.1,0.5 z" />
      <path
         style="fill:#bd202e"
         id="path3292"
         d="m 586.6,709.6 c 0.1,0 0.1,-0.1 0,0 v 0 0 0 c 0.1,-0.1 0.1,0 0,0 z" />
      <path
         style="opacity:0.35;fill:#bd202e"
         id="path3294"
         d="m 586.6,709.6 c 0.1,0 0.1,-0.1 0,0 v 0 0 0 c 0.1,-0.1 0.1,0 0,0 z"
         enable-background="new    " />
      <linearGradient
         gradientTransform="matrix(0.4345,-0.9318,-0.9318,-0.4345,6223.4761,-5052.7427)"
         y2="2600.5515"
         x2="-7209.6543"
         y1="2600.5515"
         x1="-7584.0386"
         gradientUnits="userSpaceOnUse"
         id="linearGradient4385">
        <stop
           id="stop4387"
           style="stop-color:#9C2063"
           offset="0.3233" />
        <stop
           id="stop4389"
           style="stop-color:#C82037"
           offset="0.6302" />
        <stop
           id="stop4391"
           style="stop-color:#CC2135"
           offset="0.7514" />
        <stop
           id="stop4393"
           style="stop-color:#E87726"
           offset="1" />
      </linearGradient>
      <path
         style="fill:url(#SVGID_10_)"
         id="path3305"
         d="m 586.6,709.6 c 0.1,0 0.1,-0.1 0,0 v 0 0 0 c 0.1,-0.1 0.1,0 0,0 z" />
    </g>
    <path
       id="path3469-1"
       d="m 733.26554,730.30711 c -2.2647,-0.4064 -10.8128,-2.5964 -12.1499,-3.1129 -3.135,-1.2106 -13.9019,-6.7256 -15.1661,-7.7682 -1.6901,-1.3939 -1.9071,-1.5617 -4.9855,-3.8557 -3.0503,-2.273 -9.5931,-8.8161 -11.8649,-11.8653 -0.9714,-1.3039 -2.0329,-2.695 -2.3589,-3.091 -0.3259,-0.3961 -0.8725,-1.063 -1.2146,-1.4818 -0.7181,-0.8791 -6.7865,-11.1334 -6.7865,-11.4677 0,-0.1227 -0.6314,-1.6312 -1.403,-3.3522 -0.7716,-1.7211 -1.8667,-4.4627 -2.4334,-6.0925 -0.5668,-1.6299 -1.2596,-3.4969 -1.5397,-4.1488 -0.6268,-1.4594 -2.3383,-9.5215 -2.9566,-13.9279 -0.654,-4.6604 -0.6339,-17.4489 0.034,-21.6329 1.7594,-11.0214 3.1473,-15.7314 7.1719,-24.3388 0.6197,-1.3252 1.1268,-2.7255 1.1268,-3.1115 0,-0.3861 0.2667,-0.702 0.5926,-0.702 0.326,0 0.5927,-0.3444 0.5927,-0.7655 0,-0.421 1.6468,-3.261 3.6595,-6.311 3.2647,-4.947 10.7003,-13.1614 15.6026,-17.2366 5.0724,-4.2168 15.1059,-9.713 21.0978,-11.5572 1.7611,-0.5419 3.8688,-1.216 4.6837,-1.4977 3.0116,-1.0411 8.7986,-1.7983 16.2987,-2.1324 9.667,-0.4307 19.8094,0.8313 26.9669,3.3556 5.3529,1.8878 10.2427,4.146 10.5694,4.881 0.1087,0.2446 0.4567,0.4446 0.7734,0.4446 1.2499,0 7.9783,5.0974 12.0178,9.1047 4.6744,4.637 7.7347,8.6986 10.1592,13.4832 1.5187,2.9969 1.5366,3.1431 0.476,3.8747 -0.6061,0.4181 -1.3818,0.9693 -1.7236,1.2249 -0.3418,0.2556 -1.3166,0.8648 -2.1661,1.3538 -0.8496,0.4889 -2.7736,1.6497 -4.2755,2.5794 -3.0606,1.8947 -4.2274,1.7556 -5.1271,-0.6109 -2.5132,-6.6102 -14.0403,-17.4565 -21.8889,-20.596 -8.6426,-3.4571 -13.8844,-4.4886 -22.7788,-4.4826 -9.4242,0.01 -15.4851,1.1642 -23.0182,4.3969 -2.5731,1.1042 -8.0633,4.3836 -9.2163,5.5051 -0.4307,0.419 -0.9653,0.7618 -1.1878,0.7618 -0.6296,0 -7.221,6.5051 -10.1206,9.9882 -3.1395,3.7711 -8.5924,13.4682 -9.8807,17.5713 -0.5118,1.6299 -1.1647,3.4969 -1.4508,4.1488 -2.5177,5.736 -4.0009,19.631 -3.0841,28.8931 0.6276,6.3396 1.9456,12.9778 3.0892,15.5579 0.2889,0.6519 0.7025,1.8521 0.919,2.667 0.9548,3.594 6.5353,13.9929 9.4601,17.628 2.9208,3.6303 8.2499,9.2341 10.6682,11.2183 2.7702,2.2728 11.7647,7.8954 12.6434,7.9034 0.2175,0 1.084,0.3629 1.9256,0.8022 0.8415,0.4391 3.9086,1.4371 6.8158,2.2179 4.4439,1.1934 6.5599,1.408 13.2869,1.3474 11.2558,-0.1014 18.398,-2.044 27.8559,-7.5763 6.197,-3.625 14.7566,-11.9937 17.7804,-17.3839 1.1409,-2.0338 2.341,-3.7015 2.667,-3.706 1.2567,-0.017 12.7426,6.2322 12.7426,6.9333 0,0.8303 -3.4523,7.4186 -4.1286,7.8789 -0.2395,0.163 -0.7426,0.8799 -1.118,1.5932 -1.4149,2.6881 -7.9028,9.0324 -14.0155,13.7053 -3.2437,2.4798 -11.8298,6.8404 -17.7803,9.0301 -7.9063,2.9095 -12.7018,3.6899 -23.7072,3.8581 -5.8675,0.09 -11.335,0.044 -12.1499,-0.1028 z m -472.9577,-0.8287 c 0,-0.3304 0.2573,-1.0637 0.5719,-1.6298 0.3145,-0.566 1.1292,-2.3627 1.8104,-3.9925 0.6811,-1.6299 1.4733,-3.4969 1.7602,-4.1489 0.287,-0.6519 2.1519,-5.0524 4.1442,-9.7791 1.9923,-4.7266 3.8646,-9.1273 4.1608,-9.7792 0.2961,-0.652 1.229,-2.9189 2.0731,-5.0378 0.8441,-2.1188 1.7749,-4.3859 2.0685,-5.0378 0.2936,-0.6519 1.1011,-2.5188 1.7944,-4.1486 0.6933,-1.6299 1.6413,-3.8039 2.1067,-4.8311 0.4654,-1.0272 0.8462,-2.042 0.8462,-2.255 0,-0.3363 1.1364,-3.0682 2.9692,-7.1383 0.2936,-0.6519 1.2245,-2.9189 2.0686,-5.0378 0.8441,-2.1189 1.7775,-4.3858 2.0743,-5.0378 0.2968,-0.6519 1.2303,-2.9189 2.0744,-5.0378 0.8441,-2.1188 1.775,-4.3857 2.0686,-5.0377 0.2935,-0.6519 1.0963,-2.5189 1.7838,-4.1488 0.6876,-1.6298 1.4851,-3.4967 1.7723,-4.1487 0.2872,-0.6519 1.7535,-4.1192 3.2584,-7.7048 1.5049,-3.5857 2.9756,-7.0529 3.2683,-7.7049 0.2926,-0.6519 1.6255,-3.8524 2.9619,-7.1121 1.3365,-3.2598 2.6684,-6.4602 2.9597,-7.1121 0.2914,-0.652 1.4627,-3.4525 2.6028,-6.2233 6.3874,-15.5226 7.8511,-19.0327 9.2681,-22.2253 0.2893,-0.652 1.2217,-2.919 2.072,-5.0378 0.8503,-2.1189 2.0637,-4.986 2.6966,-6.3713 l 1.1507,-2.519 h 6.4434 6.4435 l 1.3249,3.1116 c 1.6482,3.8707 3.4603,8.071 4.1552,9.6311 2.0175,4.5298 2.9633,6.7998 2.9633,7.1121 0,0.3313 1.1371,3.0151 3.3026,7.7944 0.4654,1.0272 0.8462,2.042 0.8462,2.2551 0,0.3349 0.9165,2.5426 2.9634,7.1382 2.0176,4.5299 2.9634,6.7998 2.9634,7.1121 0,0.1989 0.5527,1.6136 1.2282,3.1441 0.6755,1.5305 1.627,3.7162 2.1144,4.8572 0.4875,1.1408 1.123,2.6076 1.4124,3.2597 0.2893,0.6519 1.2167,2.9189 2.0608,5.0378 0.8441,2.1188 1.7728,4.3858 2.0638,5.0377 0.291,0.652 2.1626,5.0527 4.1593,9.7792 1.9967,4.7267 3.8684,9.1273 4.1593,9.7792 0.291,0.652 0.9634,2.2523 1.4944,3.5561 5.4502,13.3849 7.6143,18.6468 8.2875,20.1511 0.4377,0.978 1.8939,4.445 3.2361,7.7049 1.3422,3.2597 2.6791,6.4602 2.971,7.1121 0.2919,0.6519 1.0933,2.5188 1.7808,4.1487 0.6876,1.6299 1.4903,3.4969 1.7839,4.1488 0.2936,0.6519 1.2244,2.9189 2.0686,5.0377 0.8441,2.1189 1.7755,4.3859 2.0698,5.0378 2.8708,6.3596 6.524,15.3338 6.524,16.0263 0,0.7183 -1.451,0.865 -8.5539,0.865 -8.355,0 -8.5634,-0.031 -8.9608,-1.3334 -0.3636,-1.1918 -1.7419,-4.5377 -3.2349,-7.8531 -0.2936,-0.6519 -1.2291,-2.9189 -2.079,-5.0377 -1.4485,-3.6113 -2.6204,-6.4037 -3.8555,-9.1865 -0.2893,-0.652 -1.2167,-2.919 -2.0608,-5.0379 -0.8441,-2.1188 -1.775,-4.3857 -2.0686,-5.0377 -1.7975,-3.9918 -2.9692,-6.7982 -2.9692,-7.1122 0,-0.1987 -0.4956,-1.4802 -1.1012,-2.8477 -0.6057,-1.3675 -1.4709,-3.3532 -1.9227,-4.4125 l -0.8215,-1.9263 h -35.0468 -35.0467 l -1.1955,2.8153 c -0.6575,1.5484 -1.9251,4.6822 -2.8168,6.9639 -0.8918,2.2819 -2.1202,5.2677 -2.7299,6.6351 -0.6097,1.3675 -1.1086,2.649 -1.1086,2.8478 0,0.314 -1.1716,3.1204 -2.9692,7.1122 -0.2936,0.6519 -1.2245,2.9188 -2.0686,5.0377 -0.8441,2.1189 -1.783,4.3859 -2.0864,5.0378 -0.3035,0.6519 -1.5154,3.5857 -2.6933,6.5195 -1.1778,2.9337 -2.2797,5.6674 -2.4486,6.0749 -0.3899,0.9411 -17.3678,1.0779 -17.3678,0.1401 z m 103.7188,-62.2558 c 0,-0.5655 -0.8737,-2.6974 -3.3026,-8.0581 -0.4654,-1.0272 -0.8462,-2.0538 -0.8462,-2.2812 0,-0.2275 -0.3875,-1.2539 -0.861,-2.2811 -0.4736,-1.0272 -2.3459,-5.6016 -4.1605,-10.1651 -1.8147,-4.5636 -3.5465,-8.8309 -3.8485,-9.4829 -0.3021,-0.652 -1.775,-4.3858 -3.2733,-8.2975 -1.4983,-3.9118 -2.9614,-7.6456 -3.2515,-8.2976 -0.29,-0.652 -0.9262,-2.1188 -1.4136,-3.2597 -0.4875,-1.1409 -1.439,-3.3266 -2.1145,-4.8571 -0.6755,-1.5304 -1.2298,-2.9973 -1.2318,-3.2597 0,-0.2624 -0.348,-1.1438 -0.7688,-1.9587 -0.4208,-0.815 -1.4067,-3.2153 -2.191,-5.3342 -0.7842,-2.1188 -1.7702,-4.5191 -2.191,-5.334 -0.4208,-0.815 -0.7667,-1.8151 -0.7687,-2.2226 -0.01,-1.2461 -1.0843,-0.8234 -1.5113,0.5927 -0.2213,0.7334 -0.7546,2.1337 -1.1853,3.1115 -0.4307,0.978 -1.8816,4.4451 -3.2243,7.7049 -1.3426,3.2597 -3.217,7.7937 -4.1653,10.0756 -0.9483,2.2817 -5.9827,14.4169 -11.1877,26.9669 -5.2049,12.5499 -9.8864,23.8183 -10.4033,25.0407 l -0.9397,2.2226 h 31.4199 c 21.641,0 31.42,-0.1947 31.42,-0.6254 z m 58.0825,-16.5624 v -79.4191 l 33.0419,0.01 c 34.5096,0.01 40.7592,0.3275 46.2928,2.39 3.9054,1.4557 9.9585,4.4557 11.0654,5.484 0.4235,0.3934 1.6599,1.3771 2.7475,2.1858 7.6467,5.6864 14.9512,17.0397 17.7384,27.5708 2.6985,10.1967 1.5947,24.0785 -2.6839,33.7532 -6.1414,13.887 -16.4783,23.4985 -29.5275,27.4555 -2.6163,0.7934 -7.8198,0.9776 -32.8902,1.1655 l -29.7821,0.2232 v 29.3027 29.3028 h -8.0011 -8.0012 v -79.4189 z m 70.3377,5.8781 c 10.9325,-1.5123 19.7935,-9.8424 24.2206,-22.7695 1.523,-4.4473 1.8697,-16.7233 0.6115,-21.6564 -1.7096,-6.7029 -4.8426,-12.2685 -9.4949,-16.8677 -2.3081,-2.2819 -4.9934,-4.5485 -5.9671,-5.0369 -0.9738,-0.4884 -1.9039,-1.0318 -2.0669,-1.2074 -0.1629,-0.1758 -1.4965,-0.8364 -2.9633,-1.468 -2.4905,-1.0725 -4.5215,-1.161 -30.6712,-1.3384 l -28.0041,-0.19 v 35.5878 35.5878 h 24.8497 c 14.5714,0 26.7672,-0.2652 29.4857,-0.6413 z m 33.1916,73.0963 c -0.1427,-0.2444 0.7625,-2.8448 2.0116,-5.7785 1.2492,-2.9338 4.5728,-10.935 7.3858,-17.7805 2.813,-6.8454 5.4745,-13.2463 5.9145,-14.2242 0.4399,-0.978 1.9027,-4.4451 3.2507,-7.7049 2.3604,-5.7083 3.6414,-8.7441 4.7519,-11.2609 0.2876,-0.6519 1.6211,-3.8523 2.9633,-7.1121 1.3422,-3.2597 2.7927,-6.7269 3.2234,-7.7048 0.4307,-0.9779 2.1574,-5.1119 3.8371,-9.1865 1.6797,-4.0747 3.8261,-9.2755 4.7697,-11.5573 2.0116,-4.8643 8.7391,-20.8025 9.5064,-22.5218 0.291,-0.652 1.2197,-2.919 2.0638,-5.0378 0.8441,-2.1189 1.7749,-4.3858 2.0686,-5.0377 0.2935,-0.6521 1.101,-2.519 1.7943,-4.1489 0.6933,-1.6298 1.6413,-3.8037 2.1067,-4.831 0.4654,-1.0271 0.8462,-2.0418 0.8462,-2.255 0,-0.3349 0.9165,-2.5426 2.9634,-7.1382 1.1772,-2.6431 2.8683,-6.7153 4.1842,-10.0755 0.7658,-1.9559 1.6373,-3.8895 1.9365,-4.2969 0.3767,-0.5132 2.5041,-0.741 6.9189,-0.741 h 6.375 l 0.7734,1.9263 c 1.5545,3.8715 8.3619,20.0313 10.0491,23.8553 0.2876,0.652 1.6165,3.8524 2.9529,7.1121 1.3364,3.2597 2.6753,6.4603 2.9751,7.1122 0.2999,0.6519 2.5655,6.1194 5.0345,12.15 2.4691,6.0305 4.729,11.498 5.0219,12.1499 0.293,0.6519 1.9194,4.5191 3.6143,8.5938 4.0059,9.631 8.1694,19.5427 8.8381,21.0401 0.2911,0.652 1.0918,2.5189 1.7793,4.1488 0.6876,1.6298 1.4903,3.4968 1.7839,4.1487 0.2936,0.652 1.2291,2.919 2.0791,5.0378 1.4485,3.6113 2.6204,6.4036 3.8554,9.1866 0.2894,0.6519 1.2214,2.9189 2.0713,5.0376 0.8499,2.1189 1.9287,4.6929 2.3972,5.7201 0.4687,1.0271 0.8521,2.0509 0.8521,2.2749 0,0.2239 0.8001,2.1358 1.778,4.2487 0.9779,2.1127 1.7781,3.9826 1.7781,4.155 0,0.1724 0.3834,1.154 0.852,2.1812 0.4686,1.0272 1.5474,3.6012 2.3972,5.72 0.8499,2.1189 1.7854,4.3858 2.0791,5.0379 2.0528,4.5586 2.9692,6.8349 2.9692,7.3759 0,0.9527 -16.2756,0.8423 -17.0445,-0.1157 -0.3271,-0.4075 -2.9255,-6.475 -5.7743,-13.4834 -2.8487,-7.0084 -5.5308,-13.5427 -5.9603,-14.5207 -0.4295,-0.9779 -1.4763,-3.5115 -2.3261,-5.6304 -0.8499,-2.1188 -1.7854,-4.3858 -2.0791,-5.0378 -0.8036,-1.7847 -2.6843,-6.2714 -3.542,-8.4503 l -0.7601,-1.9308 -35.2594,0.1528 -35.2592,0.1528 -3.5092,8.5939 c -1.93,4.7266 -3.7661,9.2112 -4.0801,9.9659 -0.3139,0.7547 -0.5708,1.5027 -0.5708,1.6623 0,0.2536 -1.2867,3.3048 -2.9692,7.0411 -0.2936,0.652 -1.2292,2.919 -2.0791,5.0378 -0.8498,2.1188 -1.8952,4.6524 -2.3229,5.6304 -0.4278,0.978 -1.6637,3.9783 -2.7467,6.6676 l -1.9689,4.8896 h -8.1459 c -4.4803,0 -8.2627,-0.1999 -8.4054,-0.4445 z m 103.3156,-62.1009 c 0,-0.2924 -2.0409,-5.372 -3.8028,-9.465 -0.4209,-0.9779 -1.3919,-3.5116 -2.1576,-5.6304 -0.7658,-2.1189 -1.7366,-4.5192 -2.1574,-5.3342 -0.4208,-0.8149 -0.7667,-1.6963 -0.7687,-1.9588 -0.01,-0.413 -1.0479,-2.9531 -2.9729,-7.2277 -0.2936,-0.6519 -1.2291,-2.919 -2.079,-5.0377 -0.8498,-2.1189 -1.8948,-4.6526 -2.3221,-5.6306 -0.4273,-0.9779 -1.2671,-3.1116 -1.8662,-4.7414 -0.5992,-1.6299 -1.4315,-3.6301 -1.8496,-4.4451 -0.418,-0.8149 -0.7618,-1.7081 -0.7638,-1.9848 0,-0.2767 -0.3892,-1.3435 -0.8603,-2.3707 -0.4712,-1.0272 -1.8375,-4.4014 -3.0362,-7.4981 -1.1987,-3.0967 -2.6422,-6.6972 -3.2079,-8.0011 -0.5656,-1.304 -1.3984,-3.2379 -1.8504,-4.298 -1.0254,-2.4042 -1.6975,-2.2118 -2.7073,0.7753 -0.4345,1.2855 -1.0417,2.8707 -1.3492,3.5227 -0.3076,0.6519 -1.1217,2.5188 -1.8093,4.1487 -0.6876,1.6298 -1.4908,3.4968 -1.7851,4.1488 -0.4819,1.0677 -6.9301,16.4797 -14.8782,35.5608 -1.6294,3.9116 -3.2007,7.6456 -3.4919,8.2975 -0.2912,0.6519 -1.6183,3.8524 -2.9492,7.1122 -1.3309,3.2597 -2.8111,6.8025 -3.2893,7.873 -0.4782,1.0705 -0.8695,2.0706 -0.8695,2.2226 0,0.1519 14.1354,0.2763 31.412,0.2763 17.2765,0 31.4119,-0.1416 31.4119,-0.3143 z m 198.8278,61.8224 c -0.1588,-0.4172 -0.2202,-36.0971 -0.1364,-79.2886 l 0.1524,-78.53 h 7.7048 7.7049 l 0.1528,35.1162 0.1529,35.1163 h 46.5206 46.5206 v -35.2644 -35.2645 h 8.0012 8.0011 v 79.4191 79.4189 h -8.0011 -8.0012 v -37.0424 -37.0424 h -46.5208 -46.5209 l -0.1526,36.8942 -0.1526,36.8943 -7.5685,0.166 c -5.7268,0.1255 -7.6387,-0.018 -7.8572,-0.5927 z m 159.743,-78.6959 v -79.4191 h 52.15566 52.1559 v 7.4086 7.4084 h -44.1547 -44.1546 v 27.8559 27.856 h 38.5242 38.524 v 7.1122 7.1121 h -38.524 -38.5242 v 29.634 29.6339 h 45.0437 45.0435 v 7.4085 7.4084 h -53.0447 -53.04476 z"
       style="fill:#aa0000" />
    <g
       id="text4654"
       style="font-style:normal;font-variant:normal;font-weight:normal;font-stretch:normal;font-size:70.33530426px;line-height:125%;font-family:Montserrat;-inkscape-font-specification:Montserrat;letter-spacing:0px;word-spacing:0px;fill:#000000;fill-opacity:1;stroke:none;stroke-width:2.55764771px;stroke-linecap:butt;stroke-linejoin:miter;stroke-opacity:1"
       aria-label="HTTP SERVER PROJECT">
      <path
         id="path4656"
         style="fill:#000000;fill-opacity:1;stroke-width:2.55764771px"
         d="m 255.7597,798.07715 v -49.16438 h 8.29957 v 21.3116 h 24.40635 v -21.3116 h 8.29957 v 49.16438 h -8.29957 v -20.1159 h -24.40635 v 20.1159 z" />
      <path
         id="path4658"
         style="fill:#000000;fill-opacity:1;stroke-width:2.55764771px"
         d="m 329.00293,756.50898 v 41.56817 h -8.29956 v -41.56817 h -14.91109 v -7.59621 h 38.12174 v 7.59621 z" />
      <path
         id="path4660"
         style="fill:#000000;fill-opacity:1;stroke-width:2.55764771px"
         d="m 371.45139,756.50898 v 41.56817 h -8.29956 v -41.56817 h -14.91109 v -7.59621 h 38.12174 v 7.59621 z" />
      <path
         id="path4662"
         style="fill:#000000;fill-opacity:1;stroke-width:2.55764771px"
         d="m 412.2118,748.91277 q 11.18332,0 16.31779,4.29045 5.13448,4.29046 5.13448,13.22304 0,8.93259 -5.27515,13.08237 -5.20481,4.14978 -16.03645,4.14978 h -8.72158 v 14.41874 h -8.29956 v -49.16438 z m 1.05503,27.21976 q 6.89286,0 9.3546,-2.6024 2.53207,-2.67274 2.53207,-7.73689 0,-5.13447 -3.16509,-7.24453 -3.16509,-2.11006 -9.91728,-2.11006 h -8.44024 v 19.69388 z" />
      <path
         id="path4664"
         style="fill:#000000;fill-opacity:1;stroke-width:2.55764771px"
         d="m 477.48516,755.38362 q -3.5871,0 -5.90817,1.47704 -2.32106,1.47704 -2.32106,4.50146 0,2.95408 2.32106,4.57179 2.32107,1.54738 9.84694,3.3761 7.59622,1.82872 11.39432,5.13448 3.86845,3.30576 3.86845,9.7766 0,6.40052 -4.85314,10.40963 -4.85314,4.00911 -12.73069,4.00911 -11.53499,0 -20.46757,-7.94789 l 5.20481,-6.25984 q 7.45554,6.47085 15.47377,6.47085 4.00911,0 6.33017,-1.68805 2.3914,-1.75838 2.3914,-4.57179 0,-2.88375 -2.25073,-4.43113 -2.18039,-1.61771 -7.59621,-2.88375 -5.41582,-1.33637 -8.22923,-2.3914 -2.81341,-1.12536 -4.99381,-2.88374 -4.36079,-3.30576 -4.36079,-10.12829 0,-6.82252 4.92348,-10.47996 4.9938,-3.72777 12.30867,-3.72777 4.71247,0 9.3546,1.54738 4.64213,1.54737 8.01822,4.36079 l -4.43112,6.25984 q -2.18039,-1.96939 -5.90817,-3.23543 -3.72777,-1.26603 -7.3852,-1.26603 z" />
      <path
         id="path4666"
         style="fill:#000000;fill-opacity:1;stroke-width:2.55764771px"
         d="m 541.55073,748.91277 v 7.80722 h -26.23507 v 13.01203 h 23.56233 v 7.38521 h -23.56233 v 13.1527 h 27.0791 v 7.80722 H 507.0161 v -49.16438 z" />
      <path
         id="path4668"
         style="fill:#000000;fill-opacity:1;stroke-width:2.55764771px"
         d="m 592.28335,764.87888 q 0,12.16801 -10.62063,15.3331 l 12.87136,17.86517 h -10.55029 l -11.746,-16.5288 h -10.90197 v 16.5288 h -8.29957 v -49.16438 h 18.28718 q 11.25365,0 16.10679,3.79811 4.85313,3.7981 4.85313,12.168 z m -20.60824,9.14359 q 7.03353,0 9.5656,-2.18039 2.53207,-2.18039 2.53207,-6.9632 0,-4.85313 -2.6024,-6.61151 -2.60241,-1.82872 -9.28426,-1.82872 h -10.5503 v 17.58382 z" />
      <path
         id="path4670"
         style="fill:#000000;fill-opacity:1;stroke-width:2.55764771px"
         d="m 626.02671,798.07715 h -9.28426 l -19.76422,-49.16438 h 9.28426 l 15.12209,36.71503 15.12209,-36.71503 h 9.28426 z" />
      <path
         id="path4672"
         style="fill:#000000;fill-opacity:1;stroke-width:2.55764771px"
         d="m 687.30417,748.91277 v 7.80722 H 661.0691 v 13.01203 h 23.56232 v 7.38521 H 661.0691 v 13.1527 h 27.07909 v 7.80722 h -35.37866 v -49.16438 z" />
      <path
         id="path4674"
         style="fill:#000000;fill-opacity:1;stroke-width:2.55764771px"
         d="m 738.0368,764.87888 q 0,12.16801 -10.62063,15.3331 l 12.87136,17.86517 h -10.55029 l -11.746,-16.5288 h -10.90197 v 16.5288 h -8.29957 v -49.16438 h 18.28718 q 11.25365,0 16.10679,3.79811 4.85313,3.7981 4.85313,12.168 z m -20.60824,9.14359 q 7.03353,0 9.5656,-2.18039 2.53207,-2.18039 2.53207,-6.9632 0,-4.85313 -2.60241,-6.61151 -2.6024,-1.82872 -9.28426,-1.82872 h -10.55029 v 17.58382 z" />
      <path
         id="path4676"
         style="fill:#000000;fill-opacity:1;stroke-width:2.55764771px"
         d="m 786.14286,748.91277 q 11.18332,0 16.31779,4.29045 5.13448,4.29046 5.13448,13.22304 0,8.93259 -5.27515,13.08237 -5.20481,4.14978 -16.03645,4.14978 h -8.72157 v 14.41874 h -8.29957 v -49.16438 z m 1.05503,27.21976 q 6.89286,0 9.3546,-2.6024 2.53207,-2.67274 2.53207,-7.73689 0,-5.13447 -3.16509,-7.24453 -3.16509,-2.11006 -9.91728,-2.11006 h -8.44023 v 19.69388 z" />
      <path
         id="path4678"
         style="fill:#000000;fill-opacity:1;stroke-width:2.55764771px"
         d="m 856.59024,764.87888 q 0,12.16801 -10.62063,15.3331 l 12.87136,17.86517 h -10.5503 l -11.74599,-16.5288 h -10.90197 v 16.5288 h -8.29957 v -49.16438 h 18.28718 q 11.25365,0 16.10678,3.79811 4.85314,3.7981 4.85314,12.168 z m -20.60825,9.14359 q 7.03354,0 9.56561,-2.18039 2.53207,-2.18039 2.53207,-6.9632 0,-4.85313 -2.60241,-6.61151 -2.60241,-1.82872 -9.28426,-1.82872 h -10.55029 v 17.58382 z" />
      <path
         id="path4680"
         style="fill:#000000;fill-opacity:1;stroke-width:2.55764771px"
         d="m 903.61048,760.5181 q -4.99381,-5.20482 -12.30868,-5.20482 -7.31487,0 -12.37901,5.20482 -4.99381,5.20481 -4.99381,12.66035 0,7.38521 4.99381,12.59002 5.06414,5.20481 12.37901,5.20481 7.31487,0 12.30868,-5.20481 5.06414,-5.20481 5.06414,-12.59002 0,-7.45554 -5.06414,-12.66035 z m 6.11917,30.80686 q -7.45554,7.24454 -18.42785,7.24454 -10.97231,0 -18.42785,-7.24454 -7.45554,-7.31487 -7.45554,-18.14651 0,-10.90197 7.45554,-18.14651 7.45554,-7.31487 18.42785,-7.31487 10.97231,0 18.42785,7.31487 7.45554,7.24454 7.45554,18.14651 0,10.83164 -7.45554,18.14651 z" />
      <path
         id="path4682"
         style="fill:#000000;fill-opacity:1;stroke-width:2.55764771px"
         d="m 927.76078,756.36831 v -7.45554 h 23.914 v 32.42458 q 0,8.5809 -4.36079,12.87136 -4.36079,4.29045 -11.18331,4.29045 -8.58091,0 -14.62974,-6.04884 l 4.71246,-6.54118 q 4.7828,4.5718 9.3546,4.5718 3.23542,0 5.48615,-2.1804 2.32107,-2.18039 2.32107,-6.54118 v -25.39105 z" />
      <path
         id="path4684"
         style="fill:#000000;fill-opacity:1;stroke-width:2.55764771px"
         d="m 999.41708,748.91277 v 7.80722 h -26.23507 v 13.01203 h 23.56233 v 7.38521 h -23.56233 v 13.1527 h 27.07909 v 7.80722 h -35.37865 v -49.16438 z" />
      <path
         id="path4686"
         style="fill:#000000;fill-opacity:1;stroke-width:2.55764771px"
         d="m 1033.3395,790.55127 q 4.2905,0 7.3853,-1.40671 3.0947,-1.47704 6.4708,-4.64213 l 5.3455,5.48616 q -7.8072,8.65124 -18.9905,8.65124 -11.113,0 -18.4982,-7.1742 -7.3149,-7.1742 -7.3149,-18.14651 0,-10.97231 7.4555,-18.28718 7.5259,-7.31487 18.9202,-7.31487 11.4647,0 19.1312,8.44024 l -5.2751,5.76749 q -3.5168,-3.37609 -6.6819,-4.71246 -3.0947,-1.33637 -7.3148,-1.33637 -7.4556,0 -12.5197,4.85313 -5.0642,4.7828 -5.0642,12.30868 0,7.45554 4.9938,12.51968 5.0642,4.99381 11.957,4.99381 z" />
      <path
         id="path4688"
         style="fill:#000000;fill-opacity:1;stroke-width:2.55764771px"
         d="m 1081.261,756.50898 v 41.56817 h -8.2996 v -41.56817 h -14.9111 v -7.59621 h 38.1217 v 7.59621 z" />
    </g>
  </g>
</svg>
